# xmcd CD database file
#
# Track frame offsets:
#	150
#	16898
#	29045
#	42013
#	58042
#	74052
#	88077
#	105167
#	125209
#	140541
#	156496
#	175544
#	193961
#	205408
#	221165
#	237468
#	256054
#	273720
#	294234
#	311323
#
# Disc length: 4360 seconds
#
# Revision: 0
# Processed by: cddbd v1.5.2PL0 Copyright (c) Steve Scherf et al.
# Submitted via: CDex 1.51
#
DISCID=35110614
DTITLE=Various Artist - NFS Couontry Singles For Radio 109
DYEAR=1995
DGENRE=Country
TTITLE0=Live It - Gina Jeffreys
TTITLE1=Raisd On The Road - Davidson Brothers
TTITLE2=Cowboy Up - Joni Harms
TTITLE3=Big Grin Baby - Kerry Kennedy and Double Barrel
TTITLE4=Whisper - Rose Carleo
TTITLE5=Too Late - Danny Mack
TTITLE6=Love Someone - Lou Bradley
TTITLE7=Pushin' 60 - Col Millington
TTITLE8=Wish I Didn't - The Harmonators
TTITLE9=Jewel Of The Newell - Dean Perret
TTITLE10=Luckiest Girl Alive - Donna Boyd
TTITLE11=Watch The Sun Go Down - Alex Watt
TTITLE12=Country Kind Of Girl - Kylie Hogan
TTITLE13=Sing Me Another Bush Ballad - Tom Maxwell
TTITLE14=Let's Make A Family - Camille Te Nahu and Stuie French
TTITLE15=Girls On Horses - Steve Eales
TTITLE16=Drought - Col Thomson
TTITLE17=The Old Plank Bridge - Leanna Patrick
TTITLE18=Cangai Bridge - Simply Bushed
TTITLE19=Black Weed - Daxton
EXTD=YEAR: 1995
EXTT0=
EXTT1=
EXTT2=
EXTT3=
EXTT4=
EXTT5=
EXTT6=
EXTT7=
EXTT8=
EXTT9=
EXTT10=
EXTT11=
EXTT12=
EXTT13=
EXTT14=
EXTT15=
EXTT16=
EXTT17=
EXTT18=
EXTT19=
PLAYORDER=
